<?xml version="1.0" encoding="UTF-8"?>
<svg version="1.1" xmlns="http://www.w3.org/2000/svg" width="279" height="299">
<path d="M0 0 C7.530955 -0.60733508 11.48396134 3.32472507 17 8 C27.10384337 17.20611513 32.61356979 29.70657535 35 43 C35.30550781 44.63775391 35.30550781 44.63775391 35.6171875 46.30859375 C38.33612732 63.31127909 37.73727512 80.22675333 34 97 C35.98 96.01 37.96 95.02 40 94 C39.484375 93.13375 38.96875 92.2675 38.4375 91.375 C36.78569737 87.49685469 36.73162955 85.97422739 38 82 C41.15254237 77.42372881 41.15254237 77.42372881 44 76 C44.1605748 63.46624446 43.65596919 51.01404303 43 38.5 C42.90327711 36.59767496 42.80692078 34.69533125 42.7109375 32.79296875 C42.47816961 28.19508698 42.24049165 23.59748398 42 19 C43.98 18.505 43.98 18.505 46 18 C46.99 37.14 47.98 56.28 49 76 C50.65 76.33 52.3 76.66 54 77 C56.51756751 78.74831077 57.77509431 80.01978606 58.46875 83.04296875 C58.7207583 85.02053387 58.86739052 87.01085779 59 89 C59.83805176 88.85997559 60.67610352 88.71995117 61.53955078 88.57568359 C87.72542902 84.47995295 113.10673345 85.04559435 135.77734375 99.80859375 C148.5761306 109.29428939 158.71171995 125.64328773 161.625 141.375 C163.44271014 158.94619803 156.45208387 172.91280154 146.05078125 186.6015625 C144 189 144 189 141 191 C141.62648438 191.26554688 142.25296875 191.53109375 142.8984375 191.8046875 C143.71570313 192.15789062 144.53296875 192.51109375 145.375 192.875 C146.18710937 193.22304687 146.99921875 193.57109375 147.8359375 193.9296875 C150 195 150 195 152 197 C152.85708259 201.3925483 151.68914066 203.92772409 149.375 207.5625 C146.62011167 211.44143475 143.72796231 214.08246428 140 217 C139.34 217.86625 138.68 218.7325 138 219.625 C133.60456212 224.84458249 128.39617631 225.34954139 122 226 C121.67 226.33 121.34 226.66 121 227 C121.03912145 229.95216482 121.14536564 232.86686152 121.3125 235.8125 C121.35882568 236.67528564 121.40515137 237.53807129 121.45288086 238.42700195 C121.79865415 244.19834117 122.51749551 249.78758805 123.5859375 255.47265625 C124.26247753 259.60210342 124.91596706 264.16806588 123 268 C122.41992188 267.89558594 121.83984375 267.79117187 121.2421875 267.68359375 C118.60604875 267.40953972 116.58613545 267.38324072 114 268 C112.04391447 269.99683731 110.83480656 272.07006397 109.4453125 274.4921875 C102.864113 285.91145798 91.60551551 293.00269876 79.13061523 296.52832031 C56.32792442 301.57642375 33.42810391 290.97897597 12.74462891 282.95214844 C-1.0708938 278.15935903 -13.45890839 283.03470273 -26.03686523 288.95507812 C-29.31671888 290.54708313 -32.35481208 292.19049144 -35.3203125 294.31640625 C-36.20460938 294.87199219 -37.08890625 295.42757813 -38 296 C-38.99 295.67 -39.98 295.34 -41 295 C-38.0866713 281.37097954 -30.30813898 268.21577909 -21 258 C-20.46117188 257.36964844 -19.92234375 256.73929687 -19.3671875 256.08984375 C-13.02814344 249.12301996 -3.56377597 242.85892288 6 242 C13.06278865 241.7040042 20.04044187 241.67436988 27 243 C27 242.34 27 241.68 27 241 C26.04222656 241.04640625 25.08445313 241.0928125 24.09765625 241.140625 C15.52674223 241.41787771 7.94725642 240.66607391 -0.32592773 238.33496094 C-4.26375709 237.25304078 -7.10849345 236.60554349 -11 238 C-12.81047566 239.10414659 -14.58031252 240.2766896 -16.3125 241.5 C-21.1178675 244.65392719 -24.24679355 246.10093345 -30 246 C-32.5 245.0625 -32.5 245.0625 -34 244 C-34.31983794 238.66936775 -33.5160562 235.66229836 -31 231 C-41.28370795 230.46655117 -49.55333194 230.73739021 -57.875 237.25 C-66.73902099 248.72108599 -66.48534907 263.53092244 -67.76757812 277.4609375 C-68.89067114 288.48089986 -68.89067114 288.48089986 -72 293 C-74.375 294.1875 -74.375 294.1875 -77 294 C-84.85658091 287.67641049 -87.74707375 279.57493658 -90 270 C-90.109375 267.09765625 -90.109375 267.09765625 -90 265 C-90.92941406 265.68707031 -91.85882813 266.37414062 -92.81640625 267.08203125 C-94.06484321 267.99254542 -95.31355592 268.90268157 -96.5625 269.8125 C-97.17158203 270.26431641 -97.78066406 270.71613281 -98.40820312 271.18164062 C-108.15575411 278.24732573 -108.15575411 278.24732573 -113.875 277.75 C-116 277 -116 277 -117 276 C-118.39073945 261.86081557 -109.30352779 247.60247983 -100.63671875 236.98046875 C-100.09660156 236.32691406 -99.55648437 235.67335937 -99 235 C-98.2575 234.01 -97.515 233.02 -96.75 232 C-93.57128519 228.18341599 -89.52264044 225.28183258 -85.62109375 222.24609375 C-79.41324284 216.92640035 -77.34834958 211.17193582 -74.6875 203.625 C-72.13058647 196.52965784 -69.49643904 189.65351531 -66.0625 182.9375 C-63.03558048 176.75898235 -62.17748106 171.2409667 -61.50390625 164.44140625 C-60.19741054 155.51874948 -54.65172484 148.74298006 -49 142 C-49.61359375 141.71253906 -50.2271875 141.42507812 -50.859375 141.12890625 C-53.92213101 139.51369368 -55.22097837 137.98621488 -57 135 C-57.55392946 131.89799503 -57.59065866 129.09806257 -57 126 C-55.12379387 123.49839182 -53.76108697 122.38054348 -51 121 C-49.29297265 120.93003986 -47.58331997 120.91559846 -45.875 120.9375 C-44.50988281 120.95103516 -44.50988281 120.95103516 -43.1171875 120.96484375 C-42.41851562 120.97644531 -41.71984375 120.98804687 -41 121 C-40.773125 119.7625 -40.54625 118.525 -40.3125 117.25 C-39.53364989 114.24662596 -38.93928468 112.92456581 -36.9375 110.4375 C-32.74749794 108.38707346 -29.41507643 108.6002928 -25 110 C-21.75955542 112.56535196 -20.30439833 114.086805 -19 118 C-18.319375 117.67 -17.63875 117.34 -16.9375 117 C-14 116 -14 116 -10.9296875 116.2421875 C-5.53400535 115.90965043 -1.84772121 113.72555388 2.8125 111.125 C3.67037109 110.66480469 4.52824219 110.20460938 5.41210938 109.73046875 C10.01165412 107.28702523 10.01165412 107.28702523 14 104 C11.6973446 101.30540326 9.35681405 98.64731598 7 96 C6.50628906 95.42636719 6.01257813 94.85273437 5.50390625 94.26171875 C0.09755749 88.37792621 -6.71045895 84.37058425 -13.37646484 80.07226562 C-15.3133199 78.79306752 -17.16976924 77.42711664 -19 76 C-18.7890625 73.64453125 -18.7890625 73.64453125 -18 71 C-15.9609375 69.69921875 -15.9609375 69.69921875 -13.375 68.6875 C-3.6149886 64.16152032 1.27900329 55.577065 5.32226562 45.86865234 C9.6196107 34.01999268 7.82306635 24.89516651 2.875 13.875 C2.33617188 12.73804688 1.79734375 11.60109375 1.2421875 10.4296875 C-0.09905894 6.72649764 -0.22864507 3.90684843 0 0 Z " fill="#0A0503" transform="translate(117,2)"/>
<path d="M0 0 C1.19625 -0.00999023 2.3925 -0.01998047 3.625 -0.03027344 C21.96093583 0.14838963 38.44650918 6.5467777 51.9375 19 C62.26707583 29.87323772 69.85756556 43.9379669 70.4375 59.125 C69.80343397 72.77410556 63.00301527 85.47966516 53.875 95.4375 C53.215 95.1075 52.555 94.7775 51.875 94.4375 C52.36871094 93.66664063 52.86242187 92.89578125 53.37109375 92.1015625 C54.01175781 91.09867187 54.65242187 90.09578125 55.3125 89.0625 C56.26962891 87.56589844 56.26962891 87.56589844 57.24609375 86.0390625 C59.30221235 82.75518962 59.9991635 81.13563718 59.9375 77.3125 C59.9065625 75.394375 59.9065625 75.394375 59.875 73.4375 C51.01962039 68.69634543 42.80312351 70.86861369 33.65966797 73.57275391 C26.38651756 75.83134577 19.16723078 78.26521565 11.9621582 80.73168945 C-13.92045257 89.55627191 -13.92045257 89.55627191 -24.1640625 89.5703125 C-25.52917969 89.57224609 -25.52917969 89.57224609 -26.921875 89.57421875 C-27.85515625 89.57035156 -28.7884375 89.56648438 -29.75 89.5625 C-31.16152344 89.56830078 -31.16152344 89.56830078 -32.6015625 89.57421875 C-33.5090625 89.57292969 -34.4165625 89.57164062 -35.3515625 89.5703125 C-36.17221191 89.56918457 -36.99286133 89.56805664 -37.83837891 89.56689453 C-40.06014369 89.44117007 -41.9921006 89.05380694 -44.125 88.4375 C-36.0341353 97.31135161 -27.94675814 100.52045814 -16.125 102.4375 C-16.125 103.4275 -16.125 104.4175 -16.125 105.4375 C-20.82611716 107.78805858 -26.39374917 106.87084117 -31.32421875 105.63671875 C-39.54714561 102.8049179 -45.15679555 98.68835166 -51.125 92.4375 C-51.69863281 91.87160156 -52.27226562 91.30570312 -52.86328125 90.72265625 C-56.90502236 86.45115208 -59.21310144 81.53176266 -61.6328125 76.20703125 C-63.55136704 72.64615385 -65.33787863 70.06282792 -69.24609375 68.6953125 C-77.22387583 68.23790172 -81.5747166 72.23048455 -87.33984375 77.15234375 C-90.125 79.4375 -90.125 79.4375 -93.125 80.4375 C-94.67286048 72.11774991 -95.45979705 63.32209767 -92.125 55.4375 C-91.18118777 48.47535267 -92.75078705 42.01793 -94.56640625 35.3203125 C-95.43442305 30.8406174 -95.43442305 30.8406174 -94.125 28.4375 C-91.83985883 26.86529797 -89.70968298 25.61875886 -87.25 24.375 C-86.14930176 23.80616089 -86.14930176 23.80616089 -85.02636719 23.22583008 C-77.960131 19.67624224 -70.688491 16.62404656 -63.375 13.625 C-62.26398926 13.16923584 -61.15297852 12.71347168 -60.00830078 12.24389648 C-40.38217838 4.37054217 -21.16930761 0.10281617 0 0 Z " fill="#E34E41" transform="translate(206.125,91.5625)"/>
<path d="M0 0 C4.95905743 3.42944639 7.33719291 8.5382655 9.8125 13.875 C15.13138069 24.9899169 23.69350437 31.50724294 35 36 C38.07699774 36.97043775 40.90245829 37.16345118 44.125 37.1875 C44.99382812 37.20167969 45.86265625 37.21585938 46.7578125 37.23046875 C49.20329726 37.21743605 49.20329726 37.21743605 51 35 C50.11699219 34.86464844 49.23398438 34.72929687 48.32421875 34.58984375 C38.66342852 32.85692005 29.57859807 29.71431696 23 22 C23 21.34 23 20.68 23 20 C24.01030273 20.0314209 24.01030273 20.0314209 25.04101562 20.06347656 C38.74075463 20.43235161 50.89109335 20.29660847 64 16 C65.43802889 15.55737597 66.87686821 15.11737842 68.31640625 14.6796875 C75.35987863 12.51275512 82.35838759 10.2180665 89.34375 7.87109375 C90.43695557 7.50918945 91.53016113 7.14728516 92.65649414 6.77441406 C94.78188855 6.07032478 96.90376616 5.35549183 99.02124023 4.62792969 C115.05779275 -0.65984772 115.05779275 -0.65984772 122.26220703 1.75976562 C124.82577447 3.16150323 126.67382802 4.34765605 128 7 C128.52002513 12.13433267 127.28122633 14.87145357 124.5625 19.1875 C121.9090941 23.41803046 121.9090941 23.41803046 120 28 C118.845 27.835 117.69 27.67 116.5 27.5 C92.05619045 24.90284524 72.87835921 30.55328586 52 43 C55.0885316 44.5442658 57.81503596 43.17712049 61 42.3125 C67.30789683 40.66251773 73.63136058 39.14791635 80 37.75 C81.19302734 37.4876355 81.19302734 37.4876355 82.41015625 37.2199707 C84.27304923 36.81153881 86.13646478 36.40549146 88 36 C82.5825913 35.82942668 77.87475323 36.02615489 72.625 37.5625 C67.31677019 39.10559006 67.31677019 39.10559006 64 38 C65.74111122 37.04609332 67.49361385 36.11298039 69.25 35.1875 C70.22453125 34.66542969 71.1990625 34.14335937 72.203125 33.60546875 C81.65225163 29.26591911 91.30321827 28.54068715 101.5625 28.6875 C102.72330078 28.68427734 103.88410156 28.68105469 105.08007812 28.67773438 C113.59826929 28.73217952 113.59826929 28.73217952 117 31 C116.34 31.99 115.68 32.98 115 34 C112.66162109 34.43237305 112.66162109 34.43237305 109.7734375 34.51171875 C108.7421875 34.54716797 107.7109375 34.58261719 106.6484375 34.61914062 C105.56820312 34.64169922 104.48796875 34.66425781 103.375 34.6875 C101.74304688 34.73874023 101.74304688 34.73874023 100.078125 34.79101562 C97.38551937 34.87368334 94.69324709 34.94277087 92 35 C93.06528931 35.02187378 93.06528931 35.02187378 94.15209961 35.04418945 C97.41440778 35.11931625 100.67576398 35.21576133 103.9375 35.3125 C105.05447266 35.33505859 106.17144531 35.35761719 107.32226562 35.38085938 C122.8828125 35.8828125 122.8828125 35.8828125 127 40 C126.88810363 45.59481832 125.25966752 48.51628496 121.765625 52.6171875 C118.05119476 55.52627667 113.81786311 55.06189814 109.2800293 54.93383789 C86.7542068 54.33615835 64.00170509 58.5823387 44.375 70.03125 C41.32127403 71.27684875 40.12132035 71.04197018 37 70 C34.45670539 68.8211942 31.98250223 67.60639579 29.5 66.3125 C28.06959993 65.58607761 26.63860177 64.8608318 25.20703125 64.13671875 C24.49756348 63.77626465 23.7880957 63.41581055 23.05712891 63.04443359 C14.42630923 58.66244373 6.68982267 55.12627197 -3 54 C-3 56.31 -3 58.62 -3 61 C-6.5019232 57.75747852 -9.86177375 54.303749 -12 50 C-12 45.76998361 -10.78256396 42.36420881 -9.375 38.4375 C-8.06136578 34.55600793 -7.27286618 31.90877654 -9 28 C-13.4192976 24.75775503 -18.74816651 23.31295837 -24 22 C-24.96541279 18.56115735 -25.45649505 15.56066138 -25 12 C-22.48673599 8.64519058 -19.40297246 6.40535838 -16 4 C-15.030625 3.175 -14.06125 2.35 -13.0625 1.5 C-8.61860127 -0.67660346 -4.83224535 -1.22918801 0 0 Z " fill="#B7483F" transform="translate(139,160)"/>
<path d="M0 0 C1.17949219 0.01546875 2.35898438 0.0309375 3.57421875 0.046875 C6.3125 0.25 6.3125 0.25 7.3125 1.25 C9.00789452 19.4012445 6.91645235 37.31708632 -4.98583984 51.83349609 C-11.50857122 59.35657666 -18.3055103 64.59706844 -27.6875 68.25 C-28.58984375 68.62125 -29.4921875 68.9925 -30.421875 69.375 C-50.454855 74.74268842 -70.65209198 66.51389245 -89.0234375 59.37109375 C-102.3296447 54.28349297 -112.90766949 52.35832003 -126.6875 57.25 C-130.95344052 59.16444084 -135.08795392 61.32061816 -139.21875 63.5078125 C-141.89247541 64.85069711 -143.84290129 65.62608884 -146.6875 66.25 C-142.15515496 50.25348809 -131.38433594 34.2983086 -116.96484375 25.609375 C-110.24204251 22.1638156 -104.99954499 21.08554585 -97.4375 21.125 C-96.34888672 21.11919922 -96.34888672 21.11919922 -95.23828125 21.11328125 C-93.05122 21.11717975 -90.87298895 21.16811159 -88.6875 21.25 C-87.95772949 21.27562012 -87.22795898 21.30124023 -86.47607422 21.32763672 C-83.15666037 21.57253027 -81.16031814 21.79225176 -78.7265625 24.1484375 C-78.25992188 24.96570313 -77.79328125 25.78296875 -77.3125 26.625 C-70.52588446 37.37303366 -60.80357099 48.41757862 -48.6875 53.25 C-45.97322538 53.63906097 -45.97322538 53.63906097 -43.125 53.625 C-42.17496094 53.65335937 -41.22492188 53.68171875 -40.24609375 53.7109375 C-37.61726958 53.46112551 -37.61726958 53.46112551 -35.84765625 51.6640625 C-33.36055214 46.48887617 -34.63136633 42.0133551 -36.40234375 36.81640625 C-37.1323786 34.81112065 -37.87357792 32.80986979 -38.625 30.8125 C-41.0790888 24.24707073 -43.16059045 18.26709702 -43.6875 11.25 C-39.94012774 9.97132967 -36.1891463 8.70356976 -32.4375 7.4375 C-31.39335937 7.08107422 -30.34921875 6.72464844 -29.2734375 6.35742188 C-9.72849341 -0.21788339 -9.72849341 -0.21788339 0 0 Z " fill="#FA8817" transform="translate(227.6875,225.75)"/>
<path d="M0 0 C1.22847656 -0.01611328 2.45695312 -0.03222656 3.72265625 -0.04882812 C22.08363553 -0.05856353 37.47706719 6.12672266 51.5 17.8125 C55.16298671 22.39123339 55.92720672 27.60603913 55.75 33.33203125 C54.98753468 39.37218621 52.06286301 43.49242864 47.5 47.3125 C35.33921593 54.45035152 22.11414145 53.01403043 8.88134766 49.97265625 C3.64620707 48.52137266 -1.31698754 46.33400438 -6.31787109 44.234375 C-19.50445486 38.72647794 -32.20717534 35.65150654 -45.87109375 41.09375 C-48.40802721 42.2698618 -50.78043787 43.57970948 -53.1875 45 C-57.35199873 47.4505895 -60.6969788 48.05051703 -65.5 48.3125 C-68.12179891 45.79994272 -68.7817882 43.70658664 -68.9375 40.1875 C-68.56288977 30.26847264 -63.24418607 21.80024358 -56.1875 15.125 C-46.0862069 8.3125 -46.0862069 8.3125 -42.5 8.3125 C-42.5 7.6525 -42.5 6.9925 -42.5 6.3125 C-40.08484982 5.68112825 -37.668096 5.05741188 -35.25 4.4375 C-34.58742187 4.26347656 -33.92484375 4.08945313 -33.2421875 3.91015625 C-22.14364522 1.08316907 -11.45177094 -0.03004137 0 0 Z " fill="#FE6558" transform="translate(205.5,91.6875)"/>
<path d="M0 0 C2 2 2 2 2.875 4 C3.82055046 6.1673337 3.82055046 6.1673337 5.984375 6.8046875 C8 8 8 8 8.8359375 10.2578125 C9.01382813 11.20398438 9.19171875 12.15015625 9.375 13.125 C12.04532755 25.02009545 15.82276839 35.46081946 23.4609375 45.05859375 C25 47 25 47 25 48 C24.32195312 48.01417969 23.64390625 48.02835938 22.9453125 48.04296875 C15.57865923 48.42048422 10.28889325 50.18785781 4 54 C3.071875 54.556875 2.14375 55.11375 1.1875 55.6875 C-6.56923759 63.88747974 -7.16625281 74.31813078 -8.125 85 C-8.40662983 87.98052886 -8.70062285 90.95949704 -9.0078125 93.9375 C-9.08018127 94.64390625 -9.15255005 95.3503125 -9.22711182 96.078125 C-9.84593262 101.62673767 -11.05897496 106.77255788 -13 112 C-20.26795393 108.65548842 -22.25829173 102.4464202 -24.89453125 95.31640625 C-26.25576517 91.23270448 -27.21153537 87.22903755 -28 83 C-31.82033137 83.58841885 -33.90225433 85.34222848 -36.8125 87.8125 C-46.79331239 96 -46.79331239 96 -53 96 C-54.74964538 83.75248232 -45.95782131 71.56151312 -39.265625 61.87890625 C-33.91578669 55.08092206 -27.7047061 48.93011352 -20.6875 43.875 C-15.58113427 39.52669269 -13.98208885 33.07352613 -11.80078125 26.94140625 C-10.00346627 21.88941234 -7.8910027 17.01126724 -5.6875 12.125 C-5.34976563 11.37049561 -5.01203125 10.61599121 -4.6640625 9.83862305 C-3.17260153 6.52548139 -1.66583177 3.23019156 0 0 Z " fill="#E04D40" transform="translate(56,181)"/>
<path d="M0 0 C0.61989129 16.96594774 -0.16237969 29.22461929 -11 43 C-11.61681641 43.86238281 -11.61681641 43.86238281 -12.24609375 44.7421875 C-17.25888583 51.4374738 -25.01371018 55.8372849 -33 58 C-36.22089807 58.42316114 -39.37939497 58.4773831 -42.625 58.4375 C-43.50599365 58.42920166 -44.3869873 58.42090332 -45.29467773 58.41235352 C-53.0351666 58.21406038 -59.725349 56.66318217 -67 54 C-68.51762578 53.48389936 -70.0358969 52.96969389 -71.5546875 52.45703125 C-81.92625649 48.87450541 -91.49449784 44.47028151 -101 39 C-101 38.67 -101 38.34 -101 38 C-96.11998911 37.49432483 -91.2397664 37.00150416 -86.35546875 36.5390625 C-83.15513016 36.23221949 -79.9806493 35.87108897 -76.80078125 35.3984375 C-68.16706782 34.29705568 -68.16706782 34.29705568 -64.9765625 36.21875 C-63.3125 37.9375 -63.3125 37.9375 -61.78125 39.8828125 C-59.56974614 42.51139822 -57.09927452 44.31042252 -54.3125 46.3125 C-53.40113281 46.96863281 -52.48976562 47.62476563 -51.55078125 48.30078125 C-47.3156906 51.12201315 -44.5909369 52.30488521 -39.4375 52.375 C-38.48746094 52.40335937 -37.53742188 52.43171875 -36.55859375 52.4609375 C-33.92976958 52.21112551 -33.92976958 52.21112551 -32.16015625 50.4140625 C-29.67305214 45.23887617 -30.94386633 40.7633551 -32.71484375 35.56640625 C-33.4448786 33.56112065 -34.18607792 31.55986979 -34.9375 29.5625 C-37.3915888 22.99707073 -39.47309045 17.01709702 -40 10 C-36.16836326 8.70326311 -32.33440122 7.41353716 -28.5 6.125 C-27.42234375 5.76019531 -26.3446875 5.39539063 -25.234375 5.01953125 C-16.67537237 2.14913403 -9.10287788 -0.32510278 0 0 Z " fill="#FCE465" transform="translate(224,227)"/>
<path d="M0 0 C10.55350375 3.29796992 18.27507369 12.34053439 23.25 21.8125 C25.89402351 27.43104996 27.74656731 32.92375678 29 39 C29.20496094 39.96421875 29.40992188 40.9284375 29.62109375 41.921875 C32.29066181 57.01874265 32.06377588 73.23086753 29.875 88.375 C29.78259033 89.11137695 29.69018066 89.84775391 29.5949707 90.60644531 C29.2421875 92.6484375 29.2421875 92.6484375 28 96 C24.76325106 98.18372662 22.90162993 99 19 99 C18.77957031 97.89205078 18.77957031 97.89205078 18.5546875 96.76171875 C15.31290154 82.09915813 7.88868319 71.17246383 -4 62 C-2.07362374 56.81804785 0.63645927 52.1581507 3.34375 47.3515625 C7.75006572 38.43500853 9.11597251 27.28191523 6.30419922 17.60546875 C4.90810305 13.77814509 3.2697084 10.09628464 1.53125 6.4140625 C0 3 0 3 0 0 Z " fill="#FA6457" transform="translate(120,5)"/>
<path d="M0 0 C2.375 0.3125 2.375 0.3125 5 1 C9.29600925 7.44401388 11.15014052 17.33239651 10 25 C4.38339499 36.80763553 -7.04279729 44.87132737 -17.17285156 52.60058594 C-19.0075418 54.00577627 -20.82934045 55.42626029 -22.6484375 56.8515625 C-34.28664049 65.93006696 -34.28664049 65.93006696 -39.0625 66.125 C-42 65 -42 65 -43.875 61.625 C-46.3293554 53.45842461 -45.89583477 44.61702866 -42 37 C-39.68627757 33.34641006 -36.92724154 30.16763836 -34 27 C-33.40316406 26.35401855 -32.80632812 25.70803711 -32.19140625 25.04248047 C-23.49368681 15.75346869 -14.63048024 6.56760141 -3 1 C-0.43345824 2.28327088 -0.32537594 3.14856743 0.625 5.8125 C2.72425804 12.51727313 3.07436647 19.50830898 1 26.25 C-7.33950178 37.71681495 -20.30722849 46.80652017 -32.45117188 53.93286133 C-34.16669619 54.93106196 -34.16669619 54.93106196 -35 57 C-26.89671932 53.02164515 -19.98406182 47.64036767 -13 42 C-12.40477539 41.52127441 -11.80955078 41.04254883 -11.19628906 40.54931641 C-9.41305252 39.10649847 -7.64190019 37.65026163 -5.875 36.1875 C-5.33069336 35.74390137 -4.78638672 35.30030273 -4.22558594 34.84326172 C1.26657813 30.22366825 3.49670279 26.06316992 4.1953125 19.03515625 C4.49378289 13.37416786 3.19347038 9.21051241 0.875 4.06640625 C0 2 0 2 0 0 Z " fill="#AABEBD" transform="translate(103,121)"/>
<path d="M0 0 C6.56942598 2.54208223 6.56942598 2.54208223 9.1953125 5.16796875 C8.87694369 9.62513207 6.79157357 13.30977057 4.6953125 17.16796875 C4.34073975 17.82442383 3.98616699 18.48087891 3.62084961 19.15722656 C-3.22581453 31.57849702 -11.93048826 46.07192381 -23.8046875 54.16796875 C-26.6796875 54.98046875 -26.6796875 54.98046875 -28.8046875 55.16796875 C-28.8046875 55.82796875 -28.8046875 56.48796875 -28.8046875 57.16796875 C-15.18180497 53.45263715 -7.00115997 39.81322116 -0.0625 28.26953125 C1.06359998 26.25273072 2.15804677 24.23158162 3.1953125 22.16796875 C3.2571875 22.74546875 3.3190625 23.32296875 3.3828125 23.91796875 C4.5215309 27.07134277 6.55374598 28.15243823 9.1953125 30.16796875 C10.6620515 31.79074382 12.08012532 33.45887946 13.4453125 35.16796875 C14.13109375 36.01359375 14.816875 36.85921875 15.5234375 37.73046875 C17.07192256 39.98807313 17.77491871 41.49723173 18.1953125 44.16796875 C16.8753125 43.17796875 15.5553125 42.18796875 14.1953125 41.16796875 C13.8653125 41.49796875 13.5353125 41.82796875 13.1953125 42.16796875 C13.76121094 42.68746094 14.32710937 43.20695312 14.91015625 43.7421875 C15.64363281 44.43957031 16.37710938 45.13695312 17.1328125 45.85546875 C17.86371094 46.53996094 18.59460938 47.22445312 19.34765625 47.9296875 C21.38961093 50.40334507 21.84781249 52.01840516 22.1953125 55.16796875 C10.85610486 55.76216304 1.10693517 54.15964987 -9.8046875 51.16796875 C-8.28107844 48.06775554 -6.60647388 45.11634646 -4.8046875 42.16796875 C-5.4234375 42.80734375 -6.0421875 43.44671875 -6.6796875 44.10546875 C-22.86087105 60.14913516 -22.86087105 60.14913516 -29.85546875 60.17578125 C-31.8046875 59.91796875 -31.8046875 59.91796875 -34.8046875 59.16796875 C-33.54426472 55.05897543 -31.97224582 51.51989463 -29.875 47.77734375 C-26.21325617 40.57835982 -24.94829461 33.29162684 -23.6796875 25.41796875 C-20.45635846 5.84146244 -20.45635846 5.84146244 -14.84375 0.1953125 C-10.16252266 -2.16323691 -4.89192872 -1.45122676 0 0 Z " fill="#E14D41" transform="translate(119.8046875,184.83203125)"/>
<path d="M0 0 C6.79116209 1.28444514 12.6220203 3.33536303 18.875 6.25 C19.74833984 6.65259033 20.62167969 7.05518066 21.52148438 7.4699707 C24.02139948 8.63233829 26.51235144 9.81164285 29 11 C30.18851563 11.56589844 31.37703125 12.13179687 32.6015625 12.71484375 C38.54148701 15.73283774 42.25267439 18.36684951 44.71679688 24.90063477 C45.364581 26.98499622 45.94360797 29.07695753 46.5 31.1875 C48.16084499 37.20855082 50.01874443 43.01503893 52.3984375 48.80078125 C53.07690034 51.28113567 52.84474773 52.60289119 52 55 C51.236875 53.948125 50.47375 52.89625 49.6875 51.8125 C47.30022679 48.59756367 44.76069957 45.58745799 42.09814453 42.59765625 C26 24.36535133 26 24.36535133 26 16 C25.34 16 24.68 16 24 16 C28.13999558 29.40864239 37.79441115 40.04692547 46.84765625 50.453125 C50.03169503 54.22080791 50.10589499 56.12883024 50 61 C45.02408082 62.24397979 41.94731963 62.23080948 37.296875 59.6171875 C32.07144269 55.93805659 27.52729143 51.48737634 23 47 C22.17886719 46.19175781 21.35773438 45.38351562 20.51171875 44.55078125 C9.20551529 32.73687262 1.00960016 16.49013594 0 0 Z " fill="#B7483F" transform="translate(138,216)"/>
<path d="M0 0 C1.70506408 2.55759612 3.03291329 4.99744 4.375 7.75 C6.44080372 11.93064729 8.63991128 15.9791081 11 20 C10.24976563 20.01417969 9.49953125 20.02835938 8.7265625 20.04296875 C-0.81088208 20.48740886 -8.16030519 22.64491139 -14.875 29.6875 C-22.20224029 39.22307627 -23.03358345 49.87523184 -24.1875 61.4375 C-24.43198696 63.76506401 -24.68051831 66.0921381 -24.93196106 68.41896057 C-25.08601284 69.85638212 -25.23538766 71.2943148 -25.37944031 72.73277283 C-25.68192596 75.65499991 -26.06684339 78.20053017 -27 81 C-29.68357124 80.00067849 -30.79710218 79.36999014 -32.1953125 76.8203125 C-34.29657024 70.7284308 -35.71679381 64.8204258 -36.60546875 58.43359375 C-36.87588186 55.99964017 -36.87588186 55.99964017 -38 54 C-42.84386449 54.47488868 -45.92193003 55.39456641 -50 58 C-50.99 58 -51.98 58 -53 58 C-52.53145081 52.53126167 -51.0883138 48.56668595 -48.1875 43.875 C-47.79079102 43.22756836 -47.39408203 42.58013672 -46.98535156 41.91308594 C-36.10379625 24.79199161 -19.55401592 11.76164214 -2 2 C-1.34 2 -0.68 2 0 2 C0 1.34 0 0.68 0 0 Z " fill="#B8483F" transform="translate(68,207)"/>
<path d="M0 0 C0.66 0 1.32 0 2 0 C3 7 4 14 5 21 C4.0925 21.515625 3.185 22.03125 2.25 22.5625 C-3.50426763 26.4167736 -5.49900763 32.46521081 -7 39 C-7.53700771 42.26085345 -7.95099274 45.53532228 -8.375 48.8125 C-9.36376794 55.98614575 -10.63147177 62.50233133 -14 69 C-21.9495071 59.36317958 -26.74652544 48.98044161 -30 37 C-30.53947266 35.41638672 -30.53947266 35.41638672 -31.08984375 33.80078125 C-31.9395673 30.28705953 -32.14814346 28.44907872 -31 25 C-27.13980557 20.65569344 -22.02010577 17.64940276 -17.19335938 14.49658203 C-13.8052217 12.18477393 -10.72037291 9.55994411 -7.625 6.875 C-7.08472168 6.41343506 -6.54444336 5.95187012 -5.98779297 5.47631836 C-3.92530124 3.70670712 -1.92227829 1.92227829 0 0 Z " fill="#B5473E" transform="translate(103,161)"/>
<path d="M0 0 C6.36454393 4.54610281 8.97691674 12.57699156 11.9375 19.5625 C16.41910735 29.62397422 22.70177436 37.53133781 32.84375 42.3515625 C37.84344136 44.2607853 42.67213118 45.52641166 48 46 C48 46.99 48 47.98 48 49 C43.29888284 51.35055858 37.73125083 50.43334117 32.80078125 49.19921875 C24.57785439 46.3674179 18.96820445 42.25085166 13 36 C12.42636719 35.43410156 11.85273438 34.86820313 11.26171875 34.28515625 C7.21997764 30.01365208 4.91189856 25.09426266 2.4921875 19.76953125 C0.57363296 16.20865385 -1.21287863 13.62532792 -5.12109375 12.2578125 C-13.09887583 11.80040172 -17.4497166 15.79298455 -23.21484375 20.71484375 C-26 23 -26 23 -29 24 C-29.89723822 20.39570972 -30.03381265 17.58908543 -29 14 C-22.06314228 6.6006851 -10.58859952 -1.83264223 0 0 Z " fill="#FCD99C" transform="translate(142,148)"/>
<path d="M0 0 C-2 3 -2 3 -4.06860352 3.53662109 C-4.91350342 3.61477051 -5.75840332 3.69291992 -6.62890625 3.7734375 C-7.57314453 3.87301758 -8.51738281 3.97259766 -9.49023438 4.07519531 C-10.50408203 4.17413086 -11.51792969 4.27306641 -12.5625 4.375 C-27.62373392 6.10923892 -40.57278573 9.88538091 -54.12109375 16.64453125 C-57 18 -57 18 -59 18 C-58.67 18.66 -58.34 19.32 -58 20 C-57.4006665 19.81896729 -56.80133301 19.63793457 -56.18383789 19.45141602 C-49.94644886 17.5730188 -43.69832868 15.7361657 -37.4375 13.9375 C-36.55642578 13.68162109 -35.67535156 13.42574219 -34.76757812 13.16210938 C-19.17339866 8.68525638 -19.17339866 8.68525638 -12.4375 8.875 C-11.59058594 8.89304688 -10.74367188 8.91109375 -9.87109375 8.9296875 C-9.25363281 8.95289063 -8.63617188 8.97609375 -8 9 C-8.33 9.66 -8.66 10.32 -9 11 C-11.2329003 11.50026728 -13.48930647 11.89591547 -15.75 12.25 C-25.27679268 13.86207482 -34.42386097 16.57408087 -43.67578125 19.31738281 C-48.09754745 20.6160444 -52.54763748 21.81131305 -57 23 C-54.70328294 31.52487331 -52.12350143 39.81833874 -48.93115234 48.04858398 C-46.89787083 53.5149077 -45.83463623 58.3918049 -48.3125 63.9375 C-51.95180533 66.73045526 -54.5627802 66.77026661 -59.07421875 66.53125 C-68.980609 64.73249289 -77.25094711 56.06941933 -84 49 C-85.34375 46.6640625 -85.34375 46.6640625 -86 45 C-81.84130955 45.50437207 -80.08791056 47.69756496 -77.3125 50.6875 C-70.55284308 57.61590019 -64.92768876 62.65166004 -55 63 C-54.34 63 -53.68 63 -53 63 C-53.90141339 56.04623959 -56.65076493 52.83790773 -61.421875 47.8359375 C-68.1201043 40.46788527 -79 28.32184112 -79 18 C-78.34 18 -77.68 18 -77 18 C-76.52691406 18.95519531 -76.05382812 19.91039062 -75.56640625 20.89453125 C-71.21021672 29.48860232 -66.36949377 36.71904669 -60 44 C-58.29728007 46.05044013 -56.61855393 48.1191186 -54.9375 50.1875 C-54.18339844 51.10917969 -53.42929688 52.03085937 -52.65234375 52.98046875 C-52.10707031 53.64691406 -51.56179687 54.31335938 -51 55 C-52.89827859 48.44090732 -54.95084915 41.93677291 -57.17382812 35.48046875 C-58.11020429 32.75191862 -58.9856614 30.06192868 -59.63671875 27.25 C-60.50751879 23.59387502 -61.2131231 21.63426199 -64.1953125 19.23046875 C-66.74409644 17.66696099 -69.30918434 16.30160385 -72 15 C-72.98419922 14.48953125 -72.98419922 14.48953125 -73.98828125 13.96875 C-75.31229252 13.28620481 -76.65380255 12.63767248 -78 12 C-77.67 11.34 -77.34 10.68 -77 10 C-72.31740846 10.70898393 -69.22348473 12.52658192 -65.28125 15.0390625 C-62.34349883 16.27653988 -61.01181521 15.96841443 -58 15 C-56.26808916 14.15064437 -54.56133794 13.24908128 -52.875 12.3125 C-36.74958667 4.13180251 -18.10247776 -0.22793047 0 0 Z " fill="#170C08" transform="translate(241,214)"/>
<path d="M0 0 C3.9948063 1.57567766 6.24195175 4.20135144 9.0625 7.375 C9.91972656 8.33148438 10.77695313 9.28796875 11.66015625 10.2734375 C17 16.49582638 17 16.49582638 17 19 C15.68 19 14.36 19 13 19 C13.061875 20.175625 13.12375 21.35125 13.1875 22.5625 C13.15623575 28.46102106 11.32602095 32.44192538 7.5 36.9375 C3.8388972 39.70163262 0.06875143 39.6454015 -4.3828125 39.41015625 C-9.00165818 38.6863073 -11.46020806 36.77731304 -14.46875 33.3046875 C-18.331689 28.00387675 -18.59111703 23.41033579 -18 17 C-19.175625 16.7834375 -19.175625 16.7834375 -20.375 16.5625 C-23 16 -23 16 -25 15 C-25 14.01 -25 13.02 -25 12 C-23.7315625 12.433125 -23.7315625 12.433125 -22.4375 12.875 C-21.303125 13.24625 -20.16875 13.6175 -19 14 C-18.030625 14.350625 -17.06125 14.70125 -16.0625 15.0625 C-10.67478046 16.59043529 -5.11216367 16.21063279 0.4375 16.125 C2.1071582 16.11146484 2.1071582 16.11146484 3.81054688 16.09765625 C6.54059023 16.0742224 9.2701801 16.041414 12 16 C11.21753906 15.18015625 10.43507812 14.3603125 9.62890625 13.515625 C8.60638925 12.42744177 7.58427478 11.33888019 6.5625 10.25 C6.04623047 9.71117187 5.52996094 9.17234375 4.99804688 8.6171875 C2.36513423 5.79498049 0.71870249 3.79017234 0 0 Z " fill="#060303" transform="translate(173,129)"/>
<path d="M0 0 C13.1220904 12.11970849 16.64912075 31.34994749 18.2265625 48.45703125 C18.3125 50.625 18.3125 50.625 18 54 C15 56 15 56 12 56 C11.77957031 54.89205078 11.77957031 54.89205078 11.5546875 53.76171875 C8.31290154 39.09915813 0.88868319 28.17246383 -11 19 C-9.46145602 14.907473 -7.55856116 11.10544082 -5.5 7.25 C-4.8915625 6.10015625 -4.283125 4.9503125 -3.65625 3.765625 C-2 1 -2 1 0 0 Z " fill="#E44F42" transform="translate(127,48)"/>
<path d="M0 0 C1.28583984 0.00580078 1.28583984 0.00580078 2.59765625 0.01171875 C4.9375 0.3125 4.9375 0.3125 7.9375 2.3125 C9.29581981 13.1790585 3.26060138 22.89256259 -3.0625 31.3125 C-5.26957043 33.93538527 -7.55235624 36.4792024 -9.875 39 C-10.45048584 39.62487305 -11.02597168 40.24974609 -11.61889648 40.89355469 C-13.05518804 42.41036014 -14.55409701 43.86738664 -16.0625 45.3125 C-16.7225 45.3125 -17.3825 45.3125 -18.0625 45.3125 C-18.35125 45.951875 -18.64 46.59125 -18.9375 47.25 C-20.0625 49.3125 -20.0625 49.3125 -22.0625 50.3125 C-20.28515774 43.83789605 -20.28515774 43.83789605 -19.06396484 40.95629883 C-17.95724792 38.03464169 -17.42145204 35.28100953 -16.9140625 32.19921875 C-16.61242187 30.4502832 -16.61242187 30.4502832 -16.3046875 28.66601562 C-15.8953619 26.23467335 -15.49165436 23.80237815 -15.09375 21.36914062 C-12.5766701 6.91186211 -12.5766701 6.91186211 -7.12890625 1.33203125 C-4.59937593 0.08400211 -2.81277419 -0.05515244 0 0 Z " fill="#FA6457" transform="translate(112.0625,183.6875)"/>
<path d="M0 0 C0.66 0 1.32 0 2 0 C5.8682802 14.77422983 5.8682802 14.77422983 2.94628906 19.81933594 C-0.68942646 23.81047782 -5.30402394 26.43315075 -10 29 C-10.96486328 29.55083252 -10.96486328 29.55083252 -11.94921875 30.11279297 C-17.7797641 33.40825327 -23.26638856 36.16843955 -30 37 C-31.5090165 32.74457348 -32.02096433 29.43260256 -31 25 C-27.29092323 20.56979046 -21.98381931 17.62570052 -17.19335938 14.49658203 C-13.8052217 12.18477393 -10.72037291 9.55994411 -7.625 6.875 C-7.08472168 6.41343506 -6.54444336 5.95187012 -5.98779297 5.47631836 C-3.92530124 3.70670712 -1.92227829 1.92227829 0 0 Z " fill="#E25042" transform="translate(103,161)"/>
<path d="M0 0 C4.19310302 2.20807021 6.77921658 4.76389701 9.75 8.4375 C10.52859375 9.38496094 11.3071875 10.33242187 12.109375 11.30859375 C13.78762378 13.69767104 14.59680503 15.15747546 15 18 C13.68 17.01 12.36 16.02 11 15 C10.67 15.33 10.34 15.66 10 16 C10.56589844 16.51949219 11.13179687 17.03898437 11.71484375 17.57421875 C12.44832031 18.27160156 13.18179688 18.96898437 13.9375 19.6875 C14.66839844 20.37199219 15.39929688 21.05648437 16.15234375 21.76171875 C18.19429843 24.23537632 18.65249999 25.85043641 19 29 C7.66079236 29.59419429 -2.08837733 27.99168112 -13 25 C-11.88460239 22.71585967 -10.73946252 20.58915243 -9.375 18.4375 C-7.75433941 16.03094021 -7.75433941 16.03094021 -8 13 C-6.72161668 10.70861204 -5.41366475 8.51657528 -4 6.3125 C-3.6184375 5.70599609 -3.236875 5.09949219 -2.84375 4.47460938 C-1.90181528 2.97928801 -0.95168625 1.48913407 0 0 Z " fill="#B5473E" transform="translate(123,211)"/>
<path d="M0 0 C2.375 0.3125 2.375 0.3125 5 1 C9.29600925 7.44401388 11.15014052 17.33239651 10 25 C4.38339499 36.80763553 -7.04279729 44.87132737 -17.17285156 52.60058594 C-19.0075418 54.00577627 -20.82934045 55.42626029 -22.6484375 56.8515625 C-34.45549071 66.06178037 -34.45549071 66.06178037 -39.125 65.875 C-42 65 -42 65 -43.4375 63.1875 C-44.07366994 60.71350578 -43.85039667 59.38111068 -43 57 C-43 57.66 -43 58.32 -43 59 C-28.56264546 56.70180887 -17.82450691 46.12276109 -7 37 C-6.29746094 36.4328125 -5.59492187 35.865625 -4.87109375 35.28125 C0.05033487 31.25369255 3.25709482 27.53756555 4 21 C4.63804732 14.58124394 3.52217973 9.93983628 0.875 4.06640625 C0 2 0 2 0 0 Z " fill="#CEF2F0" transform="translate(103,121)"/>
<path d="M0 0 C8.09993251 2.51676475 14.7872269 11.57853512 18.97265625 18.7578125 C21.75509569 24.83051303 24 31.30133551 24 38 C20.6712479 36.89041597 19.98510301 36.07455496 17.8125 33.4375 C11.23642569 25.77222083 4.70360537 19.84932757 -3.80859375 14.41259766 C-6.84063222 12.47468212 -9.5234042 10.60741014 -12 8 C-11.21753906 7.50628906 -10.43507813 7.01257813 -9.62890625 6.50390625 C-8.61699219 5.86324219 -7.60507813 5.22257812 -6.5625 4.5625 C-5.55316406 3.92441406 -4.54382813 3.28632812 -3.50390625 2.62890625 C-1.15446165 1.22350458 -1.15446165 1.22350458 0 0 Z " fill="#B5473E" transform="translate(113,68)"/>
<path d="M0 0 C6.04868779 4.27696394 7.93559031 10.19488983 10 17 C9.25427734 17.02505615 8.50855469 17.0501123 7.74023438 17.07592773 C4.32668404 17.19273218 0.9133531 17.31507245 -2.5 17.4375 C-3.67304688 17.47681641 -4.84609375 17.51613281 -6.0546875 17.55664062 C-12.09570769 17.77723968 -18.0180985 18.11900213 -24 19 C-25.47875927 14.8246797 -25.47875927 14.8246797 -25 12 C-22.39241058 8.82015679 -19.27644775 6.46000393 -16 4 C-15.030625 3.175 -14.06125 2.35 -13.0625 1.5 C-8.62578234 -0.6730862 -4.82314498 -1.24394404 0 0 Z " fill="#E55043" transform="translate(139,160)"/>
<path d="M0 0 C4.33047553 0.6232647 7.69987627 2.15995823 11.5625 4.1875 C13.23505859 5.04408203 13.23505859 5.04408203 14.94140625 5.91796875 C20.96842992 10.02065536 22.72890838 15.46927991 24.5 22.1875 C26.16084499 28.20855082 28.01874443 34.01503893 30.3984375 39.80078125 C31.07690034 42.28113567 30.84474773 43.60289119 30 46 C29.236875 44.948125 28.47375 43.89625 27.6875 42.8125 C25.30022679 39.59756367 22.76069957 36.58745799 20.09814453 33.59765625 C4 15.36535133 4 15.36535133 4 7 C3.01 6.67 2.02 6.34 1 6 C0.67 4.02 0.34 2.04 0 0 Z " fill="#DF4C40" transform="translate(160,225)"/>
<path d="M0 0 C0.99 0.99 0.99 0.99 2 2 C-2.94558934 7.35772179 -2.94558934 7.35772179 -7 8 C-8.4535599 8.0127178 -9.90820307 7.97096925 -11.359375 7.88671875 C-30.0543551 7.13237841 -47.1905566 11.25745635 -64.48828125 18.21484375 C-67 19 -67 19 -70 18 C-70 17.34 -70 16.68 -70 16 C-49.09466227 5.45575582 -23.85463591 -3.21682481 0 0 Z " fill="#AEA5A1" transform="translate(252,216)"/>
<path d="M0 0 C0.66 0.33 1.32 0.66 2 1 C2 1.99 2 2.98 2 4 C2.99 4.0825 3.98 4.165 5 4.25 C9.40321108 4.87774903 13.30221151 6.53480768 17 9 C19.24011914 12.36017871 19.14529505 13.71138091 18.55859375 17.59375 C17.48668411 22.21120693 15.73942965 26.59883846 14 31 C12.68 31 11.36 31 10 31 C8.04206366 33.524736 8.04206366 33.524736 6.3125 36.8125 C0.78915448 46.36533247 -7.30268945 59.74145161 -18 64 C-19.32 64 -20.64 64 -22 64 C-22 63.34 -22 62.68 -22 62 C-20.2984375 61.319375 -20.2984375 61.319375 -18.5625 60.625 C-3.6201822 53.07492041 5.34067253 33.23371848 13 19 C13.43441406 18.26910156 13.86882812 17.53820312 14.31640625 16.78515625 C15.14059065 14.98958762 15.14059065 14.98958762 14.90234375 12.890625 C13.2903217 9.51305498 10.19117704 8.97607154 6.8359375 7.76953125 C2.45609866 6.58106258 -1.52238484 6.11563117 -6 7 C-11.56274416 10.55068776 -12.44295963 15.94776965 -14 22 C-14.9861101 26.52570487 -15.84712887 31.07023926 -16.6875 35.625 C-16.91244141 36.81996094 -17.13738281 38.01492187 -17.36914062 39.24609375 C-17.91755673 42.16320067 -18.46106751 45.08112883 -19 48 C-19.99 47.67 -20.98 47.34 -22 47 C-21.4075573 43.0398215 -20.79887992 39.08229551 -20.1875 35.125 C-20.02185547 34.01640625 -19.85621094 32.9078125 -19.68554688 31.765625 C-16.44057452 10.94882119 -16.44057452 10.94882119 -9 5 C-6.80859375 4.31640625 -6.80859375 4.31640625 -5 4 C-5 3.01 -5 2.02 -5 1 C-4.34 1 -3.68 1 -3 1 C-3 1.99 -3 2.98 -3 4 C-2.01 4 -1.02 4 0 4 C0 2.68 0 1.36 0 0 Z " fill="#110605" transform="translate(113,178)"/>
<path d="M0 0 C0.99 0.33 1.98 0.66 3 1 C2.67515625 1.70253906 2.3503125 2.40507812 2.015625 3.12890625 C-0.97135762 11.57287634 1.19780116 21.5311298 2.7578125 30.1015625 C3 33 3 33 1 36 C0.01 36 -0.98 36 -2 36 C-2 35.01 -2 34.02 -2 33 C-2.99 33 -3.98 33 -5 33 C-6.6277833 26.85221129 -7.20190089 21.35987804 -7 15 C-8.5839762 16.29087824 -10.16712785 17.58276822 -11.75 18.875 C-12.75289062 19.69355469 -13.75578125 20.51210937 -14.7890625 21.35546875 C-16.90415309 23.08968837 -19.00181778 24.84197873 -21.0859375 26.61328125 C-26.83648359 31.4842451 -32.59410023 36.02057741 -39 40 C-39.66 39.34 -40.32 38.68 -41 38 C-39.78376953 37.07380859 -39.78376953 37.07380859 -38.54296875 36.12890625 C-16.44951725 20.66370646 -16.44951725 20.66370646 0 0 Z " fill="#110C0B" transform="translate(112,146)"/>
<path d="M0 0 C-0.33 0.66 -0.66 1.32 -1 2 C-1.78536133 1.98428955 -2.57072266 1.9685791 -3.37988281 1.95239258 C-7.00317936 1.88930697 -10.62635973 1.85077789 -14.25 1.8125 C-15.48492187 1.78736328 -16.71984375 1.76222656 -17.9921875 1.73632812 C-28.42583416 1.65395723 -37.79677506 3.08527207 -47.25 7.6875 C-48.16265625 8.12449219 -49.0753125 8.56148437 -50.015625 9.01171875 C-50.67046875 9.33785156 -51.3253125 9.66398438 -52 10 C-51.10539063 9.7834375 -50.21078125 9.566875 -49.2890625 9.34375 C-42.06558237 7.68034733 -35.41509496 6.53869225 -28 7 C-28.33 7.66 -28.66 8.32 -29 9 C-31.1262207 9.63842773 -31.1262207 9.63842773 -33.92578125 10.18359375 C-34.94542969 10.38766846 -35.96507812 10.59174316 -37.015625 10.80200195 C-38.10359375 11.01171631 -39.1915625 11.22143066 -40.3125 11.4375 C-42.50686698 11.87582286 -44.70088258 12.31590878 -46.89453125 12.7578125 C-47.94979004 12.96954102 -49.00504883 13.18126953 -50.09228516 13.39941406 C-55.10465638 14.43471492 -60.05841421 15.66707226 -65 17 C-65 16.01 -65 15.02 -65 14 C-46.28485093 3.13313925 -22.0163717 -8.48864715 0 0 Z " fill="#190C0B" transform="translate(256,188)"/>
<path d="M0 0 C0.70447564 2.92748767 1.20653238 5.04692552 1 8 C-1.04932039 10.43781715 -2.51825004 11.80254289 -5.0625 13.5625 C-5.69212646 14.02575684 -6.32175293 14.48901367 -6.97045898 14.96630859 C-14.36891761 20.25000364 -22.90960795 25.61189544 -32 27 C-31.64754796 24.21605075 -31.15469936 23.14641295 -29.08569336 21.18823242 C-27.8502478 20.2810144 -27.8502478 20.2810144 -26.58984375 19.35546875 C-25.68169922 18.67806641 -24.77355469 18.00066406 -23.83789062 17.30273438 C-22.88076172 16.60470703 -21.92363281 15.90667969 -20.9375 15.1875 C-19.06950936 13.80883747 -17.20359478 12.42735725 -15.33984375 11.04296875 C-14.43733887 10.37313965 -13.53483398 9.70331055 -12.60498047 9.01318359 C-9.44569852 6.57162418 -6.48665121 3.95808077 -3.56079102 1.2434082 C-2 0 -2 0 0 0 Z " fill="#FDD89B" transform="translate(106,171)"/>
<path d="M0 0 C2.40308547 1.0974721 3.95621697 2.27891955 6 4 C4.60366893 7.18559952 2.95442507 9.23943845 0.4375 11.625 C-2.14015389 14.04521959 -2.14015389 14.04521959 -4 17 C-8.86954788 15.60870061 -11.16340273 13.13332746 -14 9 C-14.70437466 5.71291823 -14.3340688 4.56184297 -12.625 1.6875 C-8.57179748 -0.91813019 -4.68278407 -0.76573828 0 0 Z " fill="#CEF2F0" transform="translate(76,126)"/>
<path d="M0 0 C1.16080078 -0.00322266 2.32160156 -0.00644531 3.51757812 -0.00976562 C12.03576929 0.04467952 12.03576929 0.04467952 15.4375 2.3125 C14.7775 3.3025 14.1175 4.2925 13.4375 5.3125 C10.7421875 5.68139648 10.7421875 5.68139648 7.3125 5.68359375 C6.05606689 5.6985791 4.79963379 5.71356445 3.50512695 5.72900391 C2.84018219 5.732005 2.17523743 5.7350061 1.49014282 5.73809814 C-9.82259633 5.80369289 -20.42680904 6.55416059 -31.38671875 9.5703125 C-34.5625 10.3125 -34.5625 10.3125 -37.5625 9.3125 C-35.82138878 8.35859332 -34.06888615 7.42548039 -32.3125 6.5 C-31.33796875 5.97792969 -30.3634375 5.45585937 -29.359375 4.91796875 C-19.91024837 0.57841911 -10.25928173 -0.14681285 0 0 Z " fill="#EEEEEE" transform="translate(240.5625,188.6875)"/>
<path d="M0 0 C0.66 0.33 1.32 0.66 2 1 C2.39453125 3.234375 2.39453125 3.234375 2 6 C-0.10817922 7.68654337 -1.98743004 8.9381761 -4.3125 10.25 C-5.60875294 11.03103342 -6.90169129 11.81759206 -8.19140625 12.609375 C-9.16037842 13.20395508 -9.16037842 13.20395508 -10.14892578 13.81054688 C-18.47058056 19.15783019 -25.73464983 26.33352902 -33 33 C-33.99 32.67 -34.98 32.34 -36 32 C-33.04867924 28.62161474 -30.04226582 25.29647689 -27 22 C-26.26910156 21.20577637 -26.26910156 21.20577637 -25.5234375 20.39550781 C-19.60667924 14.03499268 -13.63519619 8.34892209 -6.3125 3.625 C-5.41204956 3.04383423 -5.41204956 3.04383423 -4.4934082 2.45092773 C-3.03855278 1.559716 -1.52301922 0.76894416 0 0 Z " fill="#D2F6F4" transform="translate(100,122)"/>
<path d="M0 0 C2.79816435 2.4483938 3.82689803 3.96138818 4.4375 7.625 C4 10 4 10 3 11.6875 C-0.13405673 13.74422473 -3.22257305 14.93398671 -7 15 C-10.0625 13.0625 -10.0625 13.0625 -12 10 C-12 6.48044581 -11.63108355 4.15079941 -9.9375 1.0625 C-6.72688264 -0.69816113 -3.50004798 -0.75353146 0 0 Z " fill="#F7D799" transform="translate(169,81)"/>
<path d="M0 0 C0.99 0.33 1.98 0.66 3 1 C5.77108928 6.83387217 5.70495969 13.00392132 4.25 19.1875 C1.58205701 25.19037173 -2.19611872 29.45051902 -7.1875 33.625 C-7.7853833 34.13063477 -8.3832666 34.63626953 -8.99926758 35.15722656 C-13.90654892 39.23584268 -18.99638975 43.04150778 -24.1875 46.75 C-24.91799561 47.2754541 -25.64849121 47.8009082 -26.40112305 48.34228516 C-27.08730713 48.8222998 -27.77349121 49.30231445 -28.48046875 49.796875 C-29.08785889 50.22323242 -29.69524902 50.64958984 -30.32104492 51.08886719 C-32 52 -32 52 -35 52 C-33.75997878 48.27993633 -32.83339677 48.09014665 -29.5 46.1875 C-24.05554487 42.84090831 -19.12691653 39.05179824 -14.1875 35 C-13.47078125 34.41887451 -12.7540625 33.83774902 -12.015625 33.23901367 C-4.02043943 26.73246236 -4.02043943 26.73246236 1 18 C1.29621242 11.9624939 1.3162832 5.92327439 0 0 Z " fill="#151818" transform="translate(103,126)"/>
<path d="M0 0 C3.34928092 1.4462804 4.66897024 2.24157907 6.140625 5.61328125 C6.56601563 6.79470703 6.56601563 6.79470703 7 8 C5.42825925 9.20280161 3.84212442 10.38681275 2.25 11.5625 C1.36828125 12.22378906 0.4865625 12.88507813 -0.421875 13.56640625 C-3 15 -3 15 -5.25 14.81640625 C-7 14 -7 14 -8.25 12.375 C-9.28318998 9.10323174 -9.30985589 6.4084148 -9 3 C-6.83328485 -0.73156498 -4.02342982 -0.48281158 0 0 Z " fill="#A9BEBD" transform="translate(89,114)"/>
<path d="M0 0 C0 0.99 0 1.98 0 3 C-1.98600337 4.3540932 -3.98817543 5.68457624 -6 7 C-6.58652344 7.77472656 -7.17304687 8.54945313 -7.77734375 9.34765625 C-10.40068828 12.47814999 -13.37129151 14.45360967 -16.8125 16.5625 C-17.40353516 16.93568359 -17.99457031 17.30886719 -18.60351562 17.69335938 C-20.3915474 18.81453524 -22.19141319 19.91232182 -24 21 C-24.9597876 21.57790283 -24.9597876 21.57790283 -25.93896484 22.16748047 C-30.75038495 25 -30.75038495 25 -33 25 C-33.33 23.02 -33.66 21.04 -34 19 C-33.14019531 18.67128906 -32.28039062 18.34257812 -31.39453125 18.00390625 C-21.22479132 13.91161177 -12.73340103 8.74657098 -4.25390625 1.7265625 C-2 0 -2 0 0 0 Z " fill="#E25243" transform="translate(108,179)"/>
<path d="M0 0 C1.29228516 0.00322266 2.58457031 0.00644531 3.91601562 0.00976562 C5.27083401 0.0181196 6.62565172 0.02658453 7.98046875 0.03515625 C9.3548161 0.04017625 10.7291652 0.04473828 12.10351562 0.04882812 C15.45837799 0.06059957 18.81315096 0.07704342 22.16796875 0.09765625 C20.50120399 2.1631492 19.69351433 3.03803628 17.00512695 3.34301758 C16.16812256 3.28911865 15.33111816 3.23521973 14.46875 3.1796875 C13.51790527 3.13900146 12.56706055 3.09831543 11.58740234 3.05639648 C10.56211426 3.00813721 9.53682617 2.95987793 8.48046875 2.91015625 C-3.87250422 2.57942448 -14.67833605 5.02600898 -26.47363281 8.45263672 C-29.23596595 9.20813197 -31.99396387 9.72020284 -34.83203125 10.09765625 C-32.54379356 7.46668693 -30.67058689 6.49363274 -27.33984375 5.52734375 C-26.46972656 5.27082031 -25.59960938 5.01429688 -24.703125 4.75 C-23.79691406 4.49347656 -22.89070312 4.23695313 -21.95703125 3.97265625 C-20.60931641 3.57626953 -20.60931641 3.57626953 -19.234375 3.171875 C-12.67994278 1.26460299 -6.87350057 -0.03027974 0 0 Z " fill="#D9D2D0" transform="translate(227.83203125,220.90234375)"/>
<path d="M0 0 C4.19310302 2.20807021 6.77921658 4.76389701 9.75 8.4375 C10.52859375 9.38496094 11.3071875 10.33242187 12.109375 11.30859375 C13.78762378 13.69767104 14.59680503 15.15747546 15 18 C14.443125 17.54625 13.88625 17.0925 13.3125 16.625 C11.09651571 14.90275587 11.09651571 14.90275587 8.5625 14.1875 C5.92163629 12.96368511 5.07944982 12.0940811 3.3125 9.875 C2.549375 8.92625 1.78625 7.9775 1 7 C0.34 7 -0.32 7 -1 7 C-2.65 9.97 -4.3 12.94 -6 16 C-6.99 16 -7.98 16 -9 16 C-7.56691865 12.04093183 -5.66858051 8.71281819 -3.375 5.1875 C-2.74335937 4.21167969 -2.11171875 3.23585937 -1.4609375 2.23046875 C-0.73777344 1.12638672 -0.73777344 1.12638672 0 0 Z " fill="#120B0A" transform="translate(123,211)"/>
<path d="M0 0 C-0.33 0.66 -0.66 1.32 -1 2 C-3.2329003 2.50026728 -5.48930647 2.89591547 -7.75 3.25 C-17.28584396 4.86040514 -26.45471077 7.56185634 -35.71142578 10.32080078 C-38.80100736 11.23772162 -41.89950913 12.12075632 -45 13 C-45.33 12.01 -45.66 11.02 -46 10 C-13.10636977 -0.83215046 -13.10636977 -0.83215046 0 0 Z " fill="#1A1815" transform="translate(233,223)"/>
<path d="M0 0 C0.23783203 1.39798828 0.23783203 1.39798828 0.48046875 2.82421875 C2.68665706 14.87902672 6.04614099 25.63923646 12.86328125 35.9765625 C14 38 14 38 14 41 C3.96509971 29.1140016 -1.79995383 16.52120482 -4 1 C-2 0 -2 0 0 0 Z " fill="#C0E1DF" transform="translate(70,188)"/>
<path d="M0 0 C-0.33 0.66 -0.66 1.32 -1 2 C-3.1262207 2.63842773 -3.1262207 2.63842773 -5.92578125 3.18359375 C-6.94542969 3.38766846 -7.96507812 3.59174316 -9.015625 3.80200195 C-10.10359375 4.01171631 -11.1915625 4.22143066 -12.3125 4.4375 C-14.50686698 4.87582286 -16.70088258 5.31590878 -18.89453125 5.7578125 C-19.94979004 5.96954102 -21.00504883 6.18126953 -22.09228516 6.39941406 C-27.10465638 7.43471492 -32.05841421 8.66707226 -37 10 C-37 9.01 -37 8.02 -37 7 C-35.3203125 5.61328125 -35.3203125 5.61328125 -33.125 4.3125 C-32.40570313 3.87550781 -31.68640625 3.43851563 -30.9453125 2.98828125 C-29 2 -29 2 -27 2 C-27 2.66 -27 3.32 -27 4 C-25.88882813 3.71125 -24.77765625 3.4225 -23.6328125 3.125 C-15.60345479 1.09983661 -8.34553428 -0.52987519 0 0 Z " fill="#1B1312" transform="translate(228,195)"/>
<path d="M0 0 C0 4 0 4 -1.71484375 6.0703125 C-2.44832031 6.74835938 -3.18179688 7.42640625 -3.9375 8.125 C-6.86992435 10.76213249 -6.86992435 10.76213249 -9 14 C-11 13 -11 13 -12 11 C-12.57416268 3.76555024 -12.57416268 3.76555024 -10.5 1 C-6.87920862 -0.44831655 -3.88716564 -0.19435828 0 0 Z " fill="#ABC0BF" transform="translate(81,129)"/>
<path d="M0 0 C3.24755997 3.14279997 6.2641836 6.41881376 9.25 9.8125 C16.0872059 17.41691712 23.13995824 23.37097623 31.91015625 28.65234375 C32.59980469 29.09707031 33.28945312 29.54179687 34 30 C34 30.33 34 30.66 34 31 C24.24201786 31 17.8399783 22.92863393 11.25 16.5625 C0 5.10505319 0 5.10505319 0 0 Z " fill="#D64A3E" transform="translate(149,246)"/>
<path d="M0 0 C8.07409748 1.647775 14.68461179 7.34002996 20.875 12.5 C21.42212646 12.95036621 21.96925293 13.40073242 22.53295898 13.86474609 C26.09781033 16.91154307 28.56047227 19.99304623 31 24 C30.67 24.66 30.34 25.32 30 26 C28.7625 24.67548828 28.7625 24.67548828 27.5 23.32421875 C19.9408565 15.41202008 12.19040673 8.96108518 3.0078125 3.01171875 C2.01523438 2.34785156 1.02265625 1.68398437 0 1 C0 0.67 0 0.34 0 0 Z " fill="#E55C50" transform="translate(103,77)"/>
<path d="M0 0 C0.33 0 0.66 0 1 0 C1.14695312 0.84820312 1.29390625 1.69640625 1.4453125 2.5703125 C3.68464909 14.28178547 7.69451835 24.81422195 14 35 C12.12719727 34.70507812 12.12719727 34.70507812 10 34 C8.44891615 31.49921222 7.1740858 29.14974193 5.9375 26.5 C5.58824463 25.76966553 5.23898926 25.03933105 4.87915039 24.28686523 C0.7926129 15.61562003 -1.68669392 9.66015607 0 0 Z " fill="#0D0807" transform="translate(72,191)"/>
<path d="M0 0 C3.76434997 0.54364792 5.14678084 1.9018264 7.4375 4.875 C12.25186154 11.36662297 16.33651681 18.81704068 17 27 C16.01 27.33 15.02 27.66 14 28 C13.67128906 26.74896484 13.67128906 26.74896484 13.3359375 25.47265625 C11.22328369 17.97531165 8.66167477 12.20725678 4 6 C3.20042692 4.81780913 2.40767725 3.63094404 1.625 2.4375 C0.820625 1.2309375 0.820625 1.2309375 0 0 Z " fill="#180807" transform="translate(122,74)"/>
<path d="M0 0 C0.33 0 0.66 0 1 0 C1.50421729 3.74944556 2.00264031 7.49963913 2.5 11.25 C2.64308594 12.31347656 2.78617187 13.37695312 2.93359375 14.47265625 C3.06894531 15.49746094 3.20429687 16.52226562 3.34375 17.578125 C3.53227539 18.99206543 3.53227539 18.99206543 3.72460938 20.43457031 C4 23 4 23 4 27 C3.01 27 2.02 27 1 27 C0.49236135 24.31374546 -0.00627197 21.62631617 -0.5 18.9375 C-0.64308594 18.18533203 -0.78617187 17.43316406 -0.93359375 16.65820312 C-3.11328125 4.66992188 -3.11328125 4.66992188 0 0 Z " fill="#BDDEDC" transform="translate(109,155)"/>
<path d="M0 0 C3.97856169 1.58956553 6.36812408 4.19889429 9.25 7.3125 C10.14203125 8.25738281 11.0340625 9.20226562 11.953125 10.17578125 C14 13 14 13 14 18 C7.07 18 0.14 18 -7 18 C-7 17.67 -7 17.34 -7 17 C-0.73 16.67 5.54 16.34 12 16 C8.4329288 12.22334138 8.4329288 12.22334138 4.84985352 8.46191406 C2.26363736 5.68289275 0.70475288 3.71660724 0 0 Z " fill="#391310" transform="translate(173,129)"/>
<path d="M0 0 C3.5 0.125 3.5 0.125 4.5 1.125 C4.6875 4.0625 4.6875 4.0625 4.5 7.125 C2.5 9.125 2.5 9.125 0 9.375 C-2.5 9.125 -2.5 9.125 -4.5 7.125 C-4.6875 4.0625 -4.6875 4.0625 -4.5 1.125 C-3.5 0.125 -3.5 0.125 0 0 Z " fill="#F7F7F7" transform="translate(177.5,148.875)"/>
<path d="M0 0 C0.99 0.33 1.98 0.66 3 1 C3.51569679 3.02840735 4.00894758 5.06471899 4.3984375 7.12109375 C5.36433405 11.74359869 6.76449455 16.23790602 8.09765625 20.765625 C8.86172345 23.50435937 9.49034415 26.20477408 10 29 C4.26389941 24.21712896 2.259403 14.87476462 0.8125 7.8125 C0.36114071 3.99834664 0.36114071 3.99834664 -2 2 C-1.34 1.34 -0.68 0.68 0 0 Z " fill="#D0493D" transform="translate(28,260)"/>
<path d="M0 0 C1.20577254 4.82309018 0.4840323 5.59880178 -1.9375 9.75 C-2.50339844 10.73484375 -3.06929687 11.7196875 -3.65234375 12.734375 C-4.09707031 13.48203125 -4.54179687 14.2296875 -5 15 C-7.2344598 10.96707255 -7.54496743 7.55032566 -8 3 C-5.36 2.01 -2.72 1.02 0 0 Z " fill="#F28517" transform="translate(192,234)"/>
<path d="M0 0 C8.75965262 0.54479018 17.34562983 1.54107999 26 3 C26 3.66 26 4.32 26 5 C16.72755227 5.33786247 8.85912168 5.09424624 0 2 C0 1.34 0 0.68 0 0 Z " fill="#DA4C3F" transform="translate(116,235)"/>
<path d="M0 0 C0.66 0 1.32 0 2 0 C2.31453125 1.03898438 2.6290625 2.07796875 2.953125 3.1484375 C5.32576181 10.90767658 7.78860758 18.53665226 11 26 C10.01 26.33 9.02 26.66 8 27 C3.5078125 15.76953125 3.5078125 15.76953125 2.72705078 13.80395508 C2.11149962 12.27665235 1.46530348 10.76175542 0.8125 9.25 C-0.3126352 6.13424098 -0.12864685 3.28049467 0 0 Z " fill="#141211" transform="translate(65,192)"/>
<path d="M0 0 C1 3 1 3 -0.40625 6.0390625 C-1.09133044 7.24177795 -1.79011392 8.43675701 -2.5 9.625 C-2.86585205 10.24874512 -3.2317041 10.87249023 -3.60864258 11.51513672 C-7.79291941 18.51997967 -12.21263435 25.26941182 -19 30 C-19 26.21617802 -18.15203565 25.82751393 -15.5625 23.1875 C-11.93931289 19.26076602 -8.98070132 15.1808837 -6.125 10.6875 C-5.7441626 10.08897217 -5.3633252 9.49044434 -4.97094727 8.8737793 C-3.15992434 5.9827252 -1.44952589 3.08977886 0 0 Z " fill="#C95046" transform="translate(123,207)"/>
<path d="M0 0 C0 0.33 0 0.66 0 1 C-2.31 1.66 -4.62 2.32 -7 3 C-7.77802187 5.3015411 -7.77802187 5.3015411 -8 8 C-6.31636451 10.94636211 -4.86542954 12.08971364 -2 14 C-4.1875 14.8125 -4.1875 14.8125 -7 15 C-9.875 13 -9.875 13 -12 10 C-12 6.48044581 -11.63108355 4.15079941 -9.9375 1.0625 C-6.72427107 -0.69959328 -3.6157826 -0.17782537 0 0 Z " fill="#C6A86F" transform="translate(169,81)"/>
<path d="M0 0 C0.99 0.66 1.98 1.32 3 2 C1.99851833 10.08643179 0.94661021 18.07451558 -1 26 C-1.99 25.67 -2.98 25.34 -4 25 C-2.68 16.75 -1.36 8.5 0 0 Z " fill="#1B0B09" transform="translate(95,200)"/>
<path d="M0 0 C0.99 0.33 1.98 0.66 3 1 C5.95792884 7.22721861 5.69873791 14.4173906 4 21 C3.01 20.67 2.02 20.34 1 20 C1.01740234 18.58847656 1.01740234 18.58847656 1.03515625 17.1484375 C1.04417969 15.90320313 1.05320312 14.65796875 1.0625 13.375 C1.07410156 12.14523438 1.08570312 10.91546875 1.09765625 9.6484375 C1.00863924 6.32276209 0.63686087 3.25952412 0 0 Z " fill="#212626" transform="translate(103,126)"/>
<path d="M0 0 C0 0.66 0 1.32 0 2 C1.65 2 3.3 2 5 2 C5 2.66 5 3.32 5 4 C2.89936424 4.69821417 0.79434263 5.38324472 -1.3125 6.0625 C-2.48425781 6.44535156 -3.65601563 6.82820312 -4.86328125 7.22265625 C-8 8 -8 8 -11 7 C-4.48275862 0 -4.48275862 0 0 0 Z " fill="#0B0403" transform="translate(201,197)"/>
<path d="M0 0 C2.875 1.5 2.875 1.5 5 3 C4.67 3.66 4.34 4.32 4 5 C3.443125 4.649375 2.88625 4.29875 2.3125 3.9375 C-0.55925711 2.77327415 -2.07133328 3.1293153 -5 4 C-6.20561184 4.98267859 -6.20561184 4.98267859 -6.09765625 6.84765625 C-6.08605469 7.57855469 -6.07445313 8.30945313 -6.0625 9.0625 C-6.041875 10.361875 -6.02125 11.66125 -6 13 C-7.5 11.9375 -7.5 11.9375 -9 10 C-9.63316583 4.09045226 -9.63316583 4.09045226 -7.875 1.0625 C-5.08564801 -0.51813279 -3.15850315 -0.37902038 0 0 Z " fill="#C7E9E7" transform="translate(89,114)"/>
<path d="M0 0 C3.98637422 1.55076343 6.02669078 4.0940683 8.6875 7.375 C9.47511719 8.33148438 10.26273438 9.28796875 11.07421875 10.2734375 C12.77513368 12.68162943 13.59890327 14.13113863 14 17 C8.48898107 12.61367881 3.88876535 7.90997773 0 2 C0 1.34 0 0.68 0 0 Z " fill="#B7D7D6" transform="translate(124,212)"/>
<path d="M0 0 C0.33 0 0.66 0 1 0 C1.95261487 4.76307437 2.08333357 9.1666528 2 14 C0.35 13.67 -1.3 13.34 -3 13 C-2.01 8.71 -1.02 4.42 0 0 Z " fill="#C4463C" transform="translate(236,253)"/>
<path d="M0 0 C5.2452606 1.38845134 7.96402435 4.72578654 11 9 C12.375 11.9375 12.375 11.9375 13 14 C8.445213 10.19985226 4.04720741 6.34334454 0 2 C0 1.34 0 0.68 0 0 Z " fill="#DA574B" transform="translate(121,89)"/>
<path d="M0 0 C-0.33 0.99 -0.66 1.98 -1 3 C-3.28515625 3.94921875 -3.28515625 3.94921875 -6.0625 4.6875 C-7.44115234 5.06455078 -7.44115234 5.06455078 -8.84765625 5.44921875 C-9.55792969 5.63097656 -10.26820313 5.81273437 -11 6 C-11.33 5.01 -11.66 4.02 -12 3 C-10.75823305 2.29773859 -9.50614401 1.61370891 -8.25 0.9375 C-7.20585937 0.36322266 -7.20585937 0.36322266 -6.140625 -0.22265625 C-3.63859372 -1.1312406 -2.4667645 -0.88336837 0 0 Z " fill="#BFB7B4" transform="translate(194,229)"/>
<path d="M0 0 C6.27 0 12.54 0 19 0 C16 3 16 3 14.09887695 3.2487793 C13.40238037 3.19117432 12.70588379 3.13356934 11.98828125 3.07421875 C11.23095703 3.01943359 10.47363281 2.96464844 9.69335938 2.90820312 C8.90767578 2.83537109 8.12199219 2.76253906 7.3125 2.6875 C6.51521484 2.62626953 5.71792969 2.56503906 4.89648438 2.50195312 C2.92983047 2.34886031 0.96471011 2.17629291 -1 2 C-0.67 1.34 -0.34 0.68 0 0 Z " fill="#E0DAD7" transform="translate(231,221)"/>
<path d="M0 0 C4.95608332 0.22527651 8.2545768 1.77719399 12 5 C12.875 8.25 12.875 8.25 13 11 C12.38125 10.2575 11.7625 9.515 11.125 8.75 C7.50220244 5.06419726 2.78996079 3.66486016 -2 2 C-1.34 1.34 -0.68 0.68 0 0 Z " fill="#170908" transform="translate(119,183)"/>
<path d="M0 0 C1.90747183 2.86120775 3.00353706 5.35254993 4.1875 8.5625 C4.55230469 9.53316406 4.91710937 10.50382812 5.29296875 11.50390625 C6 14 6 14 5 16 C4.34 16 3.68 16 3 16 C2.29695778 14.27709395 1.61316509 12.54632534 0.9375 10.8125 C0.55464844 9.84957031 0.17179688 8.88664062 -0.22265625 7.89453125 C-1.05622133 4.79065325 -0.88679818 3.05080883 0 0 Z " fill="#1F180B" transform="translate(187,251)"/>
<path d="M0 0 C0.66 0.33 1.32 0.66 2 1 C-6.84771574 8.79441624 -6.84771574 8.79441624 -12.875 9.1875 C-13.57625 9.125625 -14.2775 9.06375 -15 9 C-15.33 8.34 -15.66 7.68 -16 7 C-14.89591797 6.74476563 -14.89591797 6.74476563 -13.76953125 6.484375 C-6.20561596 4.60685706 -6.20561596 4.60685706 0 0 Z " fill="#DA574C" transform="translate(102,236)"/>
<path d="M0 0 C6.13053511 -0.32712342 10.62669111 -0.39366878 16 3 C16 4.65 16 6.3 16 8 C15.01 8.495 15.01 8.495 14 9 C13.67 7.35 13.34 5.7 13 4 C8.71 3.01 4.42 2.02 0 1 C0 0.67 0 0.34 0 0 Z " fill="#D64A3E" transform="translate(250,197)"/>
<path d="M0 0 C0.99 0 1.98 0 3 0 C4.13764351 4.26616316 5 7.56486311 5 12 C4.01 12 3.02 12 2 12 C1.34 8.04 0.68 4.08 0 0 Z " fill="#B4D3D2" transform="translate(108,170)"/>
<path d="M0 0 C0.33 0 0.66 0 1 0 C1.66 4.62 2.32 9.24 3 14 C2.01 14 1.02 14 0 14 C-0.36552803 12.58622218 -0.71695495 11.16879424 -1.0625 9.75 C-1.25972656 8.96109375 -1.45695312 8.1721875 -1.66015625 7.359375 C-2.01794116 4.87544298 -1.82703915 3.35107983 -1 1 C-0.67 0.67 -0.34 0.34 0 0 Z " fill="#28211E" transform="translate(107,165)"/>
<path d="M0 0 C0 0.99 0 1.98 0 3 C-5.16044765 4.512545 -8.65998179 5.33500455 -14 4 C-9.8890341 1.60193656 -4.7653956 0 0 0 Z " fill="#22201A" transform="translate(216,225)"/>
<path d="M0 0 C0.66 0.33 1.32 0.66 2 1 C2 1.66 2 2.32 2 3 C0.03125 4.5078125 0.03125 4.5078125 -2.5 6.125 C-3.3353125 6.66382813 -4.170625 7.20265625 -5.03125 7.7578125 C-5.6809375 8.16773438 -6.330625 8.57765625 -7 9 C-7.66 8.01 -8.32 7.02 -9 6 C-6.03 4.02 -3.06 2.04 0 0 Z " fill="#1A1E1D" transform="translate(93,123)"/>
<path d="M0 0 C0 0.99 0 1.98 0 3 C-6.93 2.67 -13.86 2.34 -21 2 C-21 1.67 -21 1.34 -21 1 C-18.43761495 0.83138242 -15.87511576 0.66504227 -13.3125 0.5 C-12.59126953 0.45230469 -11.87003906 0.40460938 -11.12695312 0.35546875 C-7.41171286 0.11796481 -3.72305126 -0.05874637 0 0 Z " fill="#313030" transform="translate(255,187)"/>
<path d="M0 0 C0.99 0.33 1.98 0.66 3 1 C1.90833564 2.6748823 0.80126363 4.33973123 -0.3125 6 C-0.92738281 6.928125 -1.54226563 7.85625 -2.17578125 8.8125 C-2.77777344 9.534375 -3.37976563 10.25625 -4 11 C-4.99 11 -5.98 11 -7 11 C-4.69 7.37 -2.38 3.74 0 0 Z " fill="#D2483D" transform="translate(265,175)"/>
<path d="M0 0 C2.17581687 2.84881728 4.20937999 5.76084088 6.1875 8.75 C6.71730469 9.54921875 7.24710937 10.3484375 7.79296875 11.171875 C8.19128906 11.77515625 8.58960937 12.3784375 9 13 C8.67 13.66 8.34 14.32 8 15 C6.65186813 13.45025019 5.3219657 11.88462935 4 10.3125 C3.2575 9.44238281 2.515 8.57226562 1.75 7.67578125 C-0.15423648 4.76416967 -0.39190361 3.39853912 0 0 Z " fill="#9FBBBA" transform="translate(76,214)"/>
<path d="M0 0 C-0.98041419 2.45103548 -1.6513818 3.76758786 -3.875 5.25 C-6 6 -6 6 -10 6 C-10 5.34 -10 4.68 -10 4 C-8.71086513 3.32845067 -7.41859796 2.66291141 -6.125 2 C-5.40570313 1.62875 -4.68640625 1.2575 -3.9453125 0.875 C-2 0 -2 0 0 0 Z " fill="#1C0A09" transform="translate(101,236)"/>
<path d="M0 0 C0.99 0 1.98 0 3 0 C4.38671875 1.75 4.38671875 1.75 5.6875 4 C6.12449219 4.7425 6.56148437 5.485 7.01171875 6.25 C7.33785156 6.8275 7.66398438 7.405 8 8 C4.79837298 7.40137646 4.08063485 7.08735442 1.75 4.5625 C0 2 0 2 0 0 Z " fill="#180B04" transform="translate(149,251)"/>
<path d="M0 0 C1.485 0.99 1.485 0.99 3 2 C2.67 4.97 2.34 7.94 2 11 C1.01 11.33 0.02 11.66 -1 12 C-0.67 8.04 -0.34 4.08 0 0 Z " fill="#260F0D" transform="translate(95,200)"/>
<path d="M0 0 C0.33 0 0.66 0 1 0 C1.66 3.96 2.32 7.92 3 12 C2.01 12 1.02 12 0 12 C-0.19573608 10.56359829 -0.38127816 9.12580496 -0.5625 7.6875 C-0.66691406 6.88699219 -0.77132812 6.08648437 -0.87890625 5.26171875 C-1 3 -1 3 0 0 Z " fill="#231311" transform="translate(72,191)"/>
<path d="M0 0 C2.86207152 1.28299758 5.0245088 2.530636 7 5 C7 5.99 7 6.98 7 8 C3.64379729 6.61122646 1.92701272 5.08322035 0 2 C0 1.34 0 0.68 0 0 Z " fill="#1F0B09" transform="translate(173,129)"/>
<path d="M0 0 C0.99 0.33 1.98 0.66 3 1 C2.34 3.97 1.68 6.94 1 10 C0.01 9.67 -0.98 9.34 -2 9 C-1.34 6.03 -0.68 3.06 0 0 Z " fill="#251107" transform="translate(233,254)"/>
<path d="M0 0 C0.8353125 0.556875 0.8353125 0.556875 1.6875 1.125 C-2.13767513 3.51573445 -5.90915524 3.68466552 -10.3125 4.125 C-7.49075596 0.85771743 -4.33996484 -1.64214886 0 0 Z " fill="#D6D6D6" transform="translate(213.3125,194.875)"/>
<path d="M0 0 C0.66 0 1.32 0 2 0 C2.66 2.97 3.32 5.94 4 9 C3.01 9 2.02 9 1 9 C-0.4783226 6.04335481 -0.06032783 3.25770263 0 0 Z " fill="#241C1B" transform="translate(65,192)"/>
<path d="M0 0 C5.75 1.875 5.75 1.875 8 3 C8 3.66 8 4.32 8 5 C4.26512223 4.5020163 2.18762365 4.12508244 -1 2 C-0.67 1.34 -0.34 0.68 0 0 Z " fill="#200C0A" transform="translate(145,215)"/>
<path d="M0 0 C3.3125 -0.1875 3.3125 -0.1875 7 0 C7.99 0.99 8.98 1.98 10 3 C7.03 3 4.06 3 1 3 C0.67 2.01 0.34 1.02 0 0 Z " fill="#0B0403" transform="translate(136,214)"/>
<path d="M0 0 C0.33 0 0.66 0 1 0 C1 3.96 1 7.92 1 12 C-1.32101984 8.51847024 -1.69903201 6.13830989 -2 2 C-1.34 1.34 -0.68 0.68 0 0 Z " fill="#000000" transform="translate(106,157)"/>
<path d="M0 0 C-4.95 2.475 -4.95 2.475 -10 5 C-10 3.68 -10 2.36 -10 1 C-5.8922935 -0.58706842 -4.40767604 -1.10191901 0 0 Z " fill="#CF483C" transform="translate(163,100)"/>
<path d="M0 0 C0.99 0.33 1.98 0.66 3 1 C3.125 3.875 3.125 3.875 3 7 C2.34 7.66 1.68 8.32 1 9 C0.67 6.03 0.34 3.06 0 0 Z " fill="#211C1B" transform="translate(110,125)"/>
<path d="M0 0 C-0.33 0.99 -0.66 1.98 -1 3 C-4.0625 4.1875 -4.0625 4.1875 -7 5 C-7.33 4.01 -7.66 3.02 -8 2 C-5.09399739 0.74335022 -3.20395416 0 0 0 Z " fill="#190807" transform="translate(147,102)"/>
<path d="M0 0 C-0.9977758 2.99332739 -1.7522025 3.94766315 -4 6 C-4.99 5.67 -5.98 5.34 -7 5 C-6 2 -6 2 -4.0625 0.8125 C-2 0 -2 0 0 0 Z " fill="#221C1B" transform="translate(207,194)"/>
<path d="M0 0 C0.66 0 1.32 0 2 0 C3.32 2.31 4.64 4.62 6 7 C4.125 6.6875 4.125 6.6875 2 6 C0 3 0 3 0 0 Z " fill="#0D0504" transform="translate(169,245)"/>
<path d="M0 0 C2.62187494 1.04874998 3.79371361 1.64931313 5.25 4.125 C5.4975 4.74375 5.745 5.3625 6 6 C5.01 6 4.02 6 3 6 C0 2.66666667 0 2.66666667 0 0 Z " fill="#BDDEDC" transform="translate(124,212)"/>
<path d="M0 0 C0.99 0.33 1.98 0.66 3 1 C2.25 3.4375 2.25 3.4375 1 6 C-1.125 6.8125 -1.125 6.8125 -3 7 C-1.125 2.25 -1.125 2.25 0 0 Z " fill="#1F1817" transform="translate(112,146)"/>
<path d="M0 0 C0.99 0 1.98 0 3 0 C3.99 1.98 4.98 3.96 6 6 C4.125 5.8125 4.125 5.8125 2 5 C0.75 2.4375 0.75 2.4375 0 0 Z " fill="#120D0D" transform="translate(80,220)"/>
<path d="M0 0 C2.1519437 3.22791555 2.20086443 4.28400809 2 8 C1.34 8 0.68 8 0 8 C-1.125 2.25 -1.125 2.25 0 0 Z " fill="#C6E9E7" transform="translate(71,200)"/>
<path d="M0 0 C1.98 0.495 1.98 0.495 4 1 C2.625 2.5 2.625 2.5 1 4 C0.34 4 -0.32 4 -1 4 C-0.67 2.68 -0.34 1.36 0 0 Z " fill="#B5CECD" transform="translate(63,155)"/>
</svg>
